# xmcd CD database file
# Copyright (C) 1993-1998 Ti Kan
#
# Track frame offsets:
#  150
#  19693
#  32403
#  49168
#  72098
#  83890
#  95825
#  107895
#  117670
#  131685
#  142660
#  153970
#  164075
#  178938
#  203233
#  219015
#  233750
#  246850
#  263513
#  273148
#
# Disc length: 3849 seconds
#
# Revision: 1
# Processed by: cddbd v1.4b41PL1 Copyright (c) Steve Scherf et al.
# Submitted via: CDWizzard Release:4.32
#
DISCID=140f0714
DTITLE=Dinah Washington - Fantastic Dinah
DYEAR=1900
DGENRE=
TTITLE0=Manhattan
TTITLE1=Ain't Cha Glad
TTITLE2=After You've Gone
TTITLE3=Backwater Blues
TTITLE4=Somebody Loves Me
TTITLE5=Ain't I Misbehaving
TTITLE6=Stormy Weather
TTITLE7=Love Letters
TTITLE8=Invitation
TTITLE9=Dream
TTITLE10=Makin' Whoope
TTITLE11=All Of Me
TTITLE12=Jailhouse Blues
TTITLE13=I've Got You Under My Skin
TTITLE14=T' Ain't Nobody's Bizz-ness If I Do
TTITLE15=Our Love Is Here to Stay
TTITLE16=If I Could Be With You One Hour Tonight
TTITLE17=Blues In The Night
TTITLE18=Sometimes I'm Happy
TTITLE19=Perdido
EXTD=
EXTT0=
EXTT1=
EXTT2=
EXTT3=
EXTT4=
EXTT5=
EXTT6=
EXTT7=
EXTT8=
EXTT9=
EXTT10=
EXTT11=
EXTT12=
EXTT13=
EXTT14=
EXTT15=
EXTT16=
EXTT17=
EXTT18=
EXTT19=
PLAYORDER=
